HIERARCHY
ROOT Hips
{
	OFFSET 0.000000 0.000000 0.000000
	CHANNELS 6 Xposition Yposition Zposition Xrotation Yrotation Zrotation
	JOINT LeftUpLeg_virtual
	{
		OFFSET 0.000000 0.000000 0.000000
		CHANNELS 3 Xrotation Yrotation Zrotation
		JOINT LeftUpLeg
		{
			OFFSET 10.205400 -3.823500 0.155100
			CHANNELS 3 Xrotation Yrotation Zrotation
			JOINT LeftLeg
			{
				OFFSET 0.708757 -12.982077 0.567790
				CHANNELS 3 Xrotation Yrotation Zrotation
				JOINT LeftFoot
				{
					OFFSET -0.708756 -10.717838 -2.184338
					CHANNELS 3 Xrotation Yrotation Zrotation
					JOINT LeftToeBase
					{
						OFFSET 0.108149 -7.191104 7.560241
						CHANNELS 3 Xrotation Yrotation Zrotation
						JOINT LeftToe_End
						{
							OFFSET 0.070230 0.081724 4.490308
							CHANNELS 3 Xrotation Yrotation Zrotation
							End Site
							{
								OFFSET 0 0 0
							}
						}
					}
				}
			}
		}
	}
	JOINT RightUpLeg_virtual
	{
		OFFSET 0.000000 0.000000 0.000000
		CHANNELS 3 Xrotation Yrotation Zrotation
		JOINT RightUpLeg
		{
			OFFSET -10.205400 -3.823500 0.005500
			CHANNELS 3 Xrotation Yrotation Zrotation
			JOINT RightLeg
			{
				OFFSET -0.708756 -12.982134 0.610632
				CHANNELS 3 Xrotation Yrotation Zrotation
				JOINT RightFoot
				{
					OFFSET 0.708754 -10.717769 -1.945823
					CHANNELS 3 Xrotation Yrotation Zrotation
					JOINT RightToeBase
					{
						OFFSET -0.108140 -7.191069 7.372968
						CHANNELS 3 Xrotation Yrotation Zrotation
						JOINT RightToe_End
						{
							OFFSET -0.070227 0.081735 4.479403
							CHANNELS 3 Xrotation Yrotation Zrotation
							End Site
							{
								OFFSET 0 0 0
							}
						}
					}
				}
			}
		}
	}
	JOINT Spine_virtual
	{
		OFFSET 0.000000 0.000000 0.000000
		CHANNELS 3 Xrotation Yrotation Zrotation
		JOINT Spine
		{
			OFFSET 0.000000 6.876099 0.125700
			CHANNELS 3 Xrotation Yrotation Zrotation
			JOINT Spine1
			{
				OFFSET 0.000000 5.730043 0.104720
				CHANNELS 3 Xrotation Yrotation Zrotation
				JOINT Spine1_split
				{
					OFFSET 0.000000 5.730043 0.104720
					CHANNELS 3 Xrotation Yrotation Zrotation
					JOINT Spine2
					{
						OFFSET 0.000000 5.730043 0.104720
						CHANNELS 3 Xrotation Yrotation Zrotation
						JOINT Neck_virtual
						{
							OFFSET 0.000000 0.000000 0.000000
							CHANNELS 3 Xrotation Yrotation Zrotation
							JOINT Neck
							{
								OFFSET 0.000000 10.314075 0.188496
								CHANNELS 3 Xrotation Yrotation Zrotation
								JOINT Head
								{
									OFFSET 0.000000 7.643700 -2.377400
									CHANNELS 3 Xrotation Yrotation Zrotation
									JOINT HeadTop_End
									{
										OFFSET 0.000000 43.788605 -13.619600
										CHANNELS 3 Xrotation Yrotation Zrotation
										End Site
										{
											OFFSET 0 0 0
										}
									}
								}
							}
						}
						JOINT LeftShoulder_virtual
						{
							OFFSET 0.000000 0.000000 0.000000
							CHANNELS 3 Xrotation Yrotation Zrotation
							JOINT LeftShoulder
							{
								OFFSET 2.196100 4.412489 0.087492
								CHANNELS 3 Xrotation Yrotation Zrotation
								JOINT LeftShoulder_split
								{
									OFFSET 2.196100 4.412489 0.087492
									CHANNELS 3 Xrotation Yrotation Zrotation
									JOINT LeftArm
									{
										OFFSET 8.771219 -2.981674 -0.026999
										CHANNELS 3 Xrotation Yrotation Zrotation
										JOINT LeftForeArm
										{
											OFFSET 8.512804 0.000000 -0.000000
											CHANNELS 3 Xrotation Yrotation Zrotation
											JOINT LeftHand
											{
												OFFSET 18.484802 0.000000 -0.000000
												CHANNELS 3 Xrotation Yrotation Zrotation
												End Site
												{
													OFFSET 0 0 0
												}
											}
										}
									}
								}
							}
						}
						JOINT RightShoulder_virtual
						{
							OFFSET 0.000000 0.000000 0.000000
							CHANNELS 3 Xrotation Yrotation Zrotation
							JOINT RightShoulder
							{
								OFFSET -2.196100 4.412496 0.070690
								CHANNELS 3 Xrotation Yrotation Zrotation
								JOINT RightShoulder_split
								{
									OFFSET -2.196100 4.412496 0.070690
									CHANNELS 3 Xrotation Yrotation Zrotation
									JOINT RightArm
									{
										OFFSET -8.771282 -2.981682 -0.094208
										CHANNELS 3 Xrotation Yrotation Zrotation
										JOINT RightForeArm
										{
											OFFSET -8.494598 0.000000 0.000000
											CHANNELS 3 Xrotation Yrotation Zrotation
											JOINT RightHand
											{
												OFFSET -18.483803 0.000000 0.000001
												CHANNELS 3 Xrotation Yrotation Zrotation
												End Site
												{
													OFFSET 0 0 0
												}
											}
										}
									}
								}
							}
						}
					}
				}
			}
		}
	}
}
MOTION
Frames: 5
Frame Time: 0.03333333
1.434355 28.378185 7.429151 0.000000 0.000000 0.000000 -0.942096 -35.654301 -2.140913 -42.666870 -1.927078 24.897976 68.379667 0.299655 -1.463879 -26.171156 -7.571873 -14.924057 -3.995411 -0.444081 2.532030 0.000000 0.000000 0.000000 -1.515719 -30.341954 -1.918702 -3.296216 -16.078962 -33.885504 54.800855 -7.632572 -14.801160 -29.039885 -15.157324 29.309875 -12.110796 0.819274 1.064970 0.000000 0.000000 0.000000 -0.717768 -28.955764 -1.928897 12.462373 9.377175 -5.230188 2.002414 2.008144 -2.031495 0.936221 -0.531719 0.938428 0.000000 0.000000 0.000000 3.821920 1.360918 -1.405599 -11.119697 9.945513 6.277987 0.716773 9.046844 -1.094526 0.000000 0.000000 0.000000 2.818686 1.865723 -1.627983 0.715226 -0.128384 -5.552322 -1.897865 -3.192933 -0.204838 -59.109939 2.341026 -46.104409 -179.128172 -73.278443 -178.333125 0.000000 0.000000 0.000000 3.011147 1.377099 -1.815562 3.530840 22.152025 -4.744687 -8.215507 -3.750591 2.396079 -42.186278 17.657899 48.847085 -178.437148 62.026833 177.567488 0.000000 0.000000 0.000000 
1.433315 28.201061 6.491386 0.000000 0.000000 0.000000 -2.249596 -39.249453 -2.399702 -42.211320 -1.577862 27.111975 69.167714 0.459362 -1.897435 -24.555336 -6.438343 -15.423009 -4.507894 -0.546814 3.104668 0.000000 0.000000 0.000000 -2.900306 -33.719780 -2.105490 -5.022277 -15.630116 -35.297673 57.096826 -8.810052 -13.617963 -31.549282 -16.438927 28.782899 -8.981883 0.752908 0.733348 0.000000 0.000000 0.000000 -2.236177 -32.445915 -2.081093 12.788689 9.040175 -4.332642 2.113675 1.900235 -1.877870 0.861295 -0.362195 1.061213 0.000000 0.000000 0.000000 3.820296 1.312810 -1.284488 -10.673391 10.663574 5.825160 1.625637 11.673272 -2.122547 0.000000 0.000000 0.000000 2.991964 1.771213 -1.465232 0.808211 -0.035837 -5.363561 -1.523328 -3.191441 -0.255668 -60.090030 3.273845 -46.237939 -179.327737 -73.341656 -178.785515 0.000000 0.000000 0.000000 3.058167 1.261201 -1.674911 3.601396 21.803514 -5.169177 -7.617964 -3.063398 2.502997 -44.631666 17.925557 52.627164 -177.608947 62.667204 176.707294 0.000000 0.000000 0.000000 
1.372734 28.048481 5.514486 0.000000 0.000000 0.000000 -3.339928 -41.853289 -2.579527 -41.945780 -1.583810 28.941236 69.437609 0.392315 -2.183361 -22.403275 -5.647314 -16.067860 -4.764471 -0.547705 3.365578 0.000000 0.000000 0.000000 -4.183551 -36.441860 -2.196271 -6.766721 -14.768828 -36.673307 58.908633 -9.230352 -12.498539 -32.914941 -16.909617 29.226284 -7.125779 0.773839 0.573498 0.000000 0.000000 0.000000 -3.447043 -35.272938 -2.120173 12.972390 8.728624 -3.402967 2.210099 1.774853 -1.683159 0.852860 -0.253734 1.089329 0.000000 0.000000 0.000000 3.772040 1.255557 -1.129915 -10.059180 11.220426 5.189762 2.507514 13.660021 -3.035563 0.000000 0.000000 0.000000 3.181969 1.649121 -1.283075 0.918160 0.088704 -5.510714 -1.309617 -3.029902 -0.388362 -60.512163 3.993607 -46.435294 -179.580918 -74.005059 -179.222552 0.000000 0.000000 0.000000 3.181671 1.150949 -1.486687 3.624937 21.146730 -5.516084 -6.917199 -2.431691 2.543308 -47.090855 17.896877 56.490732 -177.278940 62.782764 176.303097 0.000000 0.000000 0.000000 
1.252129 27.946341 4.508029 0.000000 0.000000 0.000000 -4.142976 -43.530315 -2.621016 -41.795973 -1.930597 30.295045 68.948888 0.292408 -2.297307 -19.724427 -5.195588 -16.568791 -4.590435 -0.422058 3.068813 0.000000 0.000000 0.000000 -5.313181 -38.427355 -2.212972 -8.271958 -13.749897 -37.745507 59.692875 -8.949784 -11.624599 -33.186410 -16.646698 30.538862 -6.391379 0.873866 0.533251 0.000000 0.000000 0.000000 -4.302419 -37.370144 -2.032312 12.974737 8.410774 -2.486701 2.281776 1.620623 -1.455294 0.867604 -0.172697 1.058702 0.000000 0.000000 0.000000 3.698837 1.182344 -0.939276 -9.207395 11.651268 4.401604 3.334956 15.139763 -3.893562 0.000000 0.000000 0.000000 3.369766 1.499572 -1.083635 1.045009 0.217864 -5.969026 -1.271145 -2.759897 -0.527619 -60.352610 4.487807 -46.680904 -179.853634 -74.983278 -179.577626 0.000000 0.000000 0.000000 3.368534 1.051915 -1.250701 3.629739 20.313203 -5.753138 -6.269677 -2.073385 2.423198 -49.395286 17.761137 60.113048 -177.407060 63.068894 176.327207 0.000000 0.000000 0.000000 
1.119833 27.921053 3.523554 0.000000 0.000000 0.000000 -4.690331 -44.476034 -2.500664 -41.661183 -2.443316 31.096953 67.754753 0.291355 -2.249690 -16.650722 -5.057362 -16.665470 -3.955657 -0.183755 2.071864 0.000000 0.000000 0.000000 -6.294797 -39.745926 -2.169345 -9.253490 -13.026991 -38.282042 59.367506 -8.463141 -10.962990 -33.067330 -15.961819 31.441092 -5.638862 1.024190 0.624558 0.000000 0.000000 0.000000 -4.790607 -38.874083 -1.785744 12.848440 8.098049 -1.643651 2.334593 1.457329 -1.220273 0.844449 -0.107816 0.968342 0.000000 0.000000 0.000000 3.622542 1.084669 -0.728184 -8.151837 12.004178 3.523640 4.098102 16.225447 -4.744027 0.000000 0.000000 0.000000 3.533753 1.337349 -0.880794 1.178666 0.359305 -6.620956 -1.349743 -2.593992 -0.596441 -59.594220 4.760799 -46.969667 179.847473 -75.845808 -179.864330 0.000000 0.000000 0.000000 3.581105 0.963993 -1.002242 3.627113 19.434757 -5.901521 -5.631925 -1.916935 2.270525 -51.415195 17.850734 63.269962 -177.860257 63.855637 176.648349 0.000000 0.000000 0.000000 
